<?xml version="1.0" encoding="utf-8" standalone="no"?>
<!DOCTYPE svg PUBLIC "-//W3C//DTD SVG 1.1//EN"
  "http://www.w3.org/Graphics/SVG/1.1/DTD/svg11.dtd">
<svg xmlns:xlink="http://www.w3.org/1999/xlink" width="227.981406pt" height="168.614313pt" viewBox="0 0 227.981406 168.614313" xmlns="http://www.w3.org/2000/svg" version="1.1">
 <metadata>
  <rdf:RDF xmlns:dc="http://purl.org/dc/elements/1.1/" xmlns:cc="http://creativecommons.org/ns#" xmlns:rdf="http://www.w3.org/1999/02/22-rdf-syntax-ns#">
   <cc:Work>
    <dc:type rdf:resource="http://purl.org/dc/dcmitype/StillImage"/>
    <dc:date>2026-06-26T16:49:43.509010</dc:date>
    <dc:format>image/svg+xml</dc:format>
    <dc:creator>
     <cc:Agent>
      <dc:title>Matplotlib v3.10.9, https://matplotlib.org/</dc:title>
     </cc:Agent>
    </dc:creator>
   </cc:Work>
  </rdf:RDF>
 </metadata>
 <defs>
  <style type="text/css">*{stroke-linejoin: round; stroke-linecap: butt}</style>
 </defs>
 <g id="figure_1">
  <g id="patch_1">
   <path d="M 0 168.614313 
L 227.981406 168.614313 
L 227.981406 0 
L 0 0 
L 0 168.614313 
z
" style="fill: none"/>
  </g>
  <g id="axes_1">
   <g id="patch_2">
    <path d="M 51.60375 135.869 
L 212.44 135.869 
L 212.44 7.2 
L 51.60375 7.2 
L 51.60375 135.869 
z
" style="fill: none"/>
   </g>
   <g id="matplotlib.axis_1">
    <g id="xtick_1">
     <g id="line2d_1">
      <defs>
       <path id="mfd0984d3f2" d="M 0 0 
L 0 -4 
" style="stroke: #000000"/>
      </defs>
      <g>
       <use xlink:href="#mfd0984d3f2" x="61.656016" y="135.869" style="stroke: #000000"/>
      </g>
     </g>
     <g id="text_1">
      <!-- 300 -->
      <g transform="translate(53.314609 146.026813) scale(0.1 -0.1)">
       <defs>
        <path id="ArialMT-33" d="M 269 1209 
L 831 1284 
Q 928 806 1161 595 
Q 1394 384 1728 384 
Q 2125 384 2398 659 
Q 2672 934 2672 1341 
Q 2672 1728 2419 1979 
Q 2166 2231 1775 2231 
Q 1616 2231 1378 2169 
L 1441 2663 
Q 1497 2656 1531 2656 
Q 1891 2656 2178 2843 
Q 2466 3031 2466 3422 
Q 2466 3731 2256 3934 
Q 2047 4138 1716 4138 
Q 1388 4138 1169 3931 
Q 950 3725 888 3313 
L 325 3413 
Q 428 3978 793 4289 
Q 1159 4600 1703 4600 
Q 2078 4600 2393 4439 
Q 2709 4278 2876 4000 
Q 3044 3722 3044 3409 
Q 3044 3113 2884 2869 
Q 2725 2625 2413 2481 
Q 2819 2388 3044 2092 
Q 3269 1797 3269 1353 
Q 3269 753 2831 336 
Q 2394 -81 1725 -81 
Q 1122 -81 723 278 
Q 325 638 269 1209 
z
" transform="scale(0.015625)"/>
        <path id="ArialMT-30" d="M 266 2259 
Q 266 3072 433 3567 
Q 600 4063 929 4331 
Q 1259 4600 1759 4600 
Q 2128 4600 2406 4451 
Q 2684 4303 2865 4023 
Q 3047 3744 3150 3342 
Q 3253 2941 3253 2259 
Q 3253 1453 3087 958 
Q 2922 463 2592 192 
Q 2263 -78 1759 -78 
Q 1097 -78 719 397 
Q 266 969 266 2259 
z
M 844 2259 
Q 844 1131 1108 757 
Q 1372 384 1759 384 
Q 2147 384 2411 759 
Q 2675 1134 2675 2259 
Q 2675 3391 2411 3762 
Q 2147 4134 1753 4134 
Q 1366 4134 1134 3806 
Q 844 3388 844 2259 
z
" transform="scale(0.015625)"/>
       </defs>
       <use xlink:href="#ArialMT-33"/>
       <use xlink:href="#ArialMT-30" transform="translate(55.615234 0)"/>
       <use xlink:href="#ArialMT-30" transform="translate(111.230469 0)"/>
      </g>
     </g>
    </g>
    <g id="xtick_2">
     <g id="line2d_2">
      <g>
       <use xlink:href="#mfd0984d3f2" x="111.917344" y="135.869" style="stroke: #000000"/>
      </g>
     </g>
     <g id="text_2">
      <!-- 400 -->
      <g transform="translate(103.575938 146.026813) scale(0.1 -0.1)">
       <defs>
        <path id="ArialMT-34" d="M 2069 0 
L 2069 1097 
L 81 1097 
L 81 1613 
L 2172 4581 
L 2631 4581 
L 2631 1613 
L 3250 1613 
L 3250 1097 
L 2631 1097 
L 2631 0 
L 2069 0 
z
M 2069 1613 
L 2069 3678 
L 634 1613 
L 2069 1613 
z
" transform="scale(0.015625)"/>
       </defs>
       <use xlink:href="#ArialMT-34"/>
       <use xlink:href="#ArialMT-30" transform="translate(55.615234 0)"/>
       <use xlink:href="#ArialMT-30" transform="translate(111.230469 0)"/>
      </g>
     </g>
    </g>
    <g id="xtick_3">
     <g id="line2d_3">
      <g>
       <use xlink:href="#mfd0984d3f2" x="162.178672" y="135.869" style="stroke: #000000"/>
      </g>
     </g>
     <g id="text_3">
      <!-- 500 -->
      <g transform="translate(153.837266 146.026813) scale(0.1 -0.1)">
       <defs>
        <path id="ArialMT-35" d="M 266 1200 
L 856 1250 
Q 922 819 1161 601 
Q 1400 384 1738 384 
Q 2144 384 2425 690 
Q 2706 997 2706 1503 
Q 2706 1984 2436 2262 
Q 2166 2541 1728 2541 
Q 1456 2541 1237 2417 
Q 1019 2294 894 2097 
L 366 2166 
L 809 4519 
L 3088 4519 
L 3088 3981 
L 1259 3981 
L 1013 2750 
Q 1425 3038 1878 3038 
Q 2478 3038 2890 2622 
Q 3303 2206 3303 1553 
Q 3303 931 2941 478 
Q 2500 -78 1738 -78 
Q 1113 -78 717 272 
Q 322 622 266 1200 
z
" transform="scale(0.015625)"/>
       </defs>
       <use xlink:href="#ArialMT-35"/>
       <use xlink:href="#ArialMT-30" transform="translate(55.615234 0)"/>
       <use xlink:href="#ArialMT-30" transform="translate(111.230469 0)"/>
      </g>
     </g>
    </g>
    <g id="xtick_4">
     <g id="line2d_4">
      <g>
       <use xlink:href="#mfd0984d3f2" x="212.44" y="135.869" style="stroke: #000000"/>
      </g>
     </g>
     <g id="text_4">
      <!-- 600 -->
      <g transform="translate(204.098594 146.026813) scale(0.1 -0.1)">
       <defs>
        <path id="ArialMT-36" d="M 3184 3459 
L 2625 3416 
Q 2550 3747 2413 3897 
Q 2184 4138 1850 4138 
Q 1581 4138 1378 3988 
Q 1113 3794 959 3422 
Q 806 3050 800 2363 
Q 1003 2672 1297 2822 
Q 1591 2972 1913 2972 
Q 2475 2972 2870 2558 
Q 3266 2144 3266 1488 
Q 3266 1056 3080 686 
Q 2894 316 2569 119 
Q 2244 -78 1831 -78 
Q 1128 -78 684 439 
Q 241 956 241 2144 
Q 241 3472 731 4075 
Q 1159 4600 1884 4600 
Q 2425 4600 2770 4297 
Q 3116 3994 3184 3459 
z
M 888 1484 
Q 888 1194 1011 928 
Q 1134 663 1356 523 
Q 1578 384 1822 384 
Q 2178 384 2434 671 
Q 2691 959 2691 1453 
Q 2691 1928 2437 2201 
Q 2184 2475 1800 2475 
Q 1419 2475 1153 2201 
Q 888 1928 888 1484 
z
" transform="scale(0.015625)"/>
       </defs>
       <use xlink:href="#ArialMT-36"/>
       <use xlink:href="#ArialMT-30" transform="translate(55.615234 0)"/>
       <use xlink:href="#ArialMT-30" transform="translate(111.230469 0)"/>
      </g>
     </g>
    </g>
    <g id="xtick_5">
     <g id="line2d_5">
      <defs>
       <path id="mae0eeab532" d="M 0 0 
L 0 -2.2 
" style="stroke: #000000"/>
      </defs>
      <g>
       <use xlink:href="#mae0eeab532" x="86.78668" y="135.869" style="stroke: #000000"/>
      </g>
     </g>
    </g>
    <g id="xtick_6">
     <g id="line2d_6">
      <g>
       <use xlink:href="#mae0eeab532" x="137.048008" y="135.869" style="stroke: #000000"/>
      </g>
     </g>
    </g>
    <g id="xtick_7">
     <g id="line2d_7">
      <g>
       <use xlink:href="#mae0eeab532" x="187.309336" y="135.869" style="stroke: #000000"/>
      </g>
     </g>
    </g>
    <g id="text_5">
     <!-- $T$ (K) -->
     <g transform="translate(118.641875 158.774313) scale(0.12 -0.12)">
      <defs>
       <path id="Arial-ItalicMT-54" d="M 1453 0 
L 2300 4059 
L 797 4059 
L 906 4581 
L 4513 4581 
L 4403 4059 
L 2913 4059 
L 2066 0 
L 1453 0 
z
" transform="scale(0.015625)"/>
       <path id="ArialMT-20" transform="scale(0.015625)"/>
       <path id="ArialMT-28" d="M 1497 -1347 
Q 1031 -759 709 28 
Q 388 816 388 1659 
Q 388 2403 628 3084 
Q 909 3875 1497 4659 
L 1900 4659 
Q 1522 4009 1400 3731 
Q 1209 3300 1100 2831 
Q 966 2247 966 1656 
Q 966 153 1900 -1347 
L 1497 -1347 
z
" transform="scale(0.015625)"/>
       <path id="ArialMT-4b" d="M 469 0 
L 469 4581 
L 1075 4581 
L 1075 2309 
L 3350 4581 
L 4172 4581 
L 2250 2725 
L 4256 0 
L 3456 0 
L 1825 2319 
L 1075 1588 
L 1075 0 
L 469 0 
z
" transform="scale(0.015625)"/>
       <path id="ArialMT-29" d="M 791 -1347 
L 388 -1347 
Q 1322 153 1322 1656 
Q 1322 2244 1188 2822 
Q 1081 3291 891 3722 
Q 769 4003 388 4659 
L 791 4659 
Q 1378 3875 1659 3084 
Q 1900 2403 1900 1659 
Q 1900 816 1576 28 
Q 1253 -759 791 -1347 
z
" transform="scale(0.015625)"/>
      </defs>
      <use xlink:href="#Arial-ItalicMT-54" transform="translate(0 0.203125)"/>
      <use xlink:href="#ArialMT-20" transform="translate(61.083984 0.203125)"/>
      <use xlink:href="#ArialMT-28" transform="translate(88.867188 0.203125)"/>
      <use xlink:href="#ArialMT-4b" transform="translate(122.167969 0.203125)"/>
      <use xlink:href="#ArialMT-29" transform="translate(188.867188 0.203125)"/>
     </g>
    </g>
   </g>
   <g id="matplotlib.axis_2">
    <g id="ytick_1">
     <g id="line2d_8">
      <defs>
       <path id="m9c39c38ed6" d="M 0 0 
L 4 0 
" style="stroke: #000000"/>
      </defs>
      <g>
       <use xlink:href="#m9c39c38ed6" x="51.60375" y="135.869" style="stroke: #000000"/>
      </g>
     </g>
     <g id="text_6">
      <!-- 0 -->
      <g transform="translate(43.042812 139.447906) scale(0.1 -0.1)">
       <use xlink:href="#ArialMT-30"/>
      </g>
     </g>
    </g>
    <g id="ytick_2">
     <g id="line2d_9">
      <g>
       <use xlink:href="#m9c39c38ed6" x="51.60375" y="95.659938" style="stroke: #000000"/>
      </g>
     </g>
     <g id="text_7">
      <!-- 500 -->
      <g transform="translate(31.920937 99.238844) scale(0.1 -0.1)">
       <use xlink:href="#ArialMT-35"/>
       <use xlink:href="#ArialMT-30" transform="translate(55.615234 0)"/>
       <use xlink:href="#ArialMT-30" transform="translate(111.230469 0)"/>
      </g>
     </g>
    </g>
    <g id="ytick_3">
     <g id="line2d_10">
      <g>
       <use xlink:href="#m9c39c38ed6" x="51.60375" y="55.450875" style="stroke: #000000"/>
      </g>
     </g>
     <g id="text_8">
      <!-- 1000 -->
      <g transform="translate(26.36 59.029781) scale(0.1 -0.1)">
       <defs>
        <path id="ArialMT-31" d="M 2384 0 
L 1822 0 
L 1822 3584 
Q 1619 3391 1289 3197 
Q 959 3003 697 2906 
L 697 3450 
Q 1169 3672 1522 3987 
Q 1875 4303 2022 4600 
L 2384 4600 
L 2384 0 
z
" transform="scale(0.015625)"/>
       </defs>
       <use xlink:href="#ArialMT-31"/>
       <use xlink:href="#ArialMT-30" transform="translate(55.615234 0)"/>
       <use xlink:href="#ArialMT-30" transform="translate(111.230469 0)"/>
       <use xlink:href="#ArialMT-30" transform="translate(166.845703 0)"/>
      </g>
     </g>
    </g>
    <g id="ytick_4">
     <g id="line2d_11">
      <g>
       <use xlink:href="#m9c39c38ed6" x="51.60375" y="15.241812" style="stroke: #000000"/>
      </g>
     </g>
     <g id="text_9">
      <!-- 1500 -->
      <g transform="translate(26.36 18.820719) scale(0.1 -0.1)">
       <use xlink:href="#ArialMT-31"/>
       <use xlink:href="#ArialMT-35" transform="translate(55.615234 0)"/>
       <use xlink:href="#ArialMT-30" transform="translate(111.230469 0)"/>
       <use xlink:href="#ArialMT-30" transform="translate(166.845703 0)"/>
      </g>
     </g>
    </g>
    <g id="ytick_5">
     <g id="line2d_12">
      <defs>
       <path id="m7b89907674" d="M 0 0 
L 2.2 0 
" style="stroke: #000000"/>
      </defs>
      <g>
       <use xlink:href="#m7b89907674" x="51.60375" y="115.764469" style="stroke: #000000"/>
      </g>
     </g>
    </g>
    <g id="ytick_6">
     <g id="line2d_13">
      <g>
       <use xlink:href="#m7b89907674" x="51.60375" y="75.555406" style="stroke: #000000"/>
      </g>
     </g>
    </g>
    <g id="ytick_7">
     <g id="line2d_14">
      <g>
       <use xlink:href="#m7b89907674" x="51.60375" y="35.346344" style="stroke: #000000"/>
      </g>
     </g>
    </g>
    <g id="text_10">
     <!-- $\sigma$ (S cm$^{-1}$) -->
     <g transform="translate(21.72 99.7345) rotate(-90) scale(0.12 -0.12)">
      <defs>
       <path id="Arial-ItalicMT-3c3" d="M 4125 3319 
L 4028 2847 
L 3200 2847 
Q 3441 2497 3441 1978 
Q 3441 1166 2966 545 
Q 2491 -75 1663 -75 
Q 1034 -75 673 295 
Q 313 666 313 1266 
Q 313 2156 805 2775 
Q 1297 3394 2091 3394 
Q 2344 3394 2550 3319 
L 4125 3319 
z
M 875 1278 
Q 875 875 1087 619 
Q 1300 363 1669 363 
Q 2231 363 2554 902 
Q 2878 1441 2878 2003 
Q 2878 2463 2670 2709 
Q 2463 2956 2106 2956 
Q 1547 2956 1211 2442 
Q 875 1928 875 1278 
z
" transform="scale(0.015625)"/>
       <path id="ArialMT-53" d="M 288 1472 
L 859 1522 
Q 900 1178 1048 958 
Q 1197 738 1509 602 
Q 1822 466 2213 466 
Q 2559 466 2825 569 
Q 3091 672 3220 851 
Q 3350 1031 3350 1244 
Q 3350 1459 3225 1620 
Q 3100 1781 2813 1891 
Q 2628 1963 1997 2114 
Q 1366 2266 1113 2400 
Q 784 2572 623 2826 
Q 463 3081 463 3397 
Q 463 3744 659 4045 
Q 856 4347 1234 4503 
Q 1613 4659 2075 4659 
Q 2584 4659 2973 4495 
Q 3363 4331 3572 4012 
Q 3781 3694 3797 3291 
L 3216 3247 
Q 3169 3681 2898 3903 
Q 2628 4125 2100 4125 
Q 1550 4125 1298 3923 
Q 1047 3722 1047 3438 
Q 1047 3191 1225 3031 
Q 1400 2872 2139 2705 
Q 2878 2538 3153 2413 
Q 3553 2228 3743 1945 
Q 3934 1663 3934 1294 
Q 3934 928 3725 604 
Q 3516 281 3123 101 
Q 2731 -78 2241 -78 
Q 1619 -78 1198 103 
Q 778 284 539 648 
Q 300 1013 288 1472 
z
" transform="scale(0.015625)"/>
       <path id="ArialMT-63" d="M 2588 1216 
L 3141 1144 
Q 3050 572 2676 248 
Q 2303 -75 1759 -75 
Q 1078 -75 664 370 
Q 250 816 250 1647 
Q 250 2184 428 2587 
Q 606 2991 970 3192 
Q 1334 3394 1763 3394 
Q 2303 3394 2647 3120 
Q 2991 2847 3088 2344 
L 2541 2259 
Q 2463 2594 2264 2762 
Q 2066 2931 1784 2931 
Q 1359 2931 1093 2626 
Q 828 2322 828 1663 
Q 828 994 1084 691 
Q 1341 388 1753 388 
Q 2084 388 2306 591 
Q 2528 794 2588 1216 
z
" transform="scale(0.015625)"/>
       <path id="ArialMT-6d" d="M 422 0 
L 422 3319 
L 925 3319 
L 925 2853 
Q 1081 3097 1340 3245 
Q 1600 3394 1931 3394 
Q 2300 3394 2536 3241 
Q 2772 3088 2869 2813 
Q 3263 3394 3894 3394 
Q 4388 3394 4653 3120 
Q 4919 2847 4919 2278 
L 4919 0 
L 4359 0 
L 4359 2091 
Q 4359 2428 4304 2576 
Q 4250 2725 4106 2815 
Q 3963 2906 3769 2906 
Q 3419 2906 3187 2673 
Q 2956 2441 2956 1928 
L 2956 0 
L 2394 0 
L 2394 2156 
Q 2394 2531 2256 2718 
Q 2119 2906 1806 2906 
Q 1569 2906 1367 2781 
Q 1166 2656 1075 2415 
Q 984 2175 984 1722 
L 984 0 
L 422 0 
z
" transform="scale(0.015625)"/>
       <path id="ArialMT-2212" d="M 3381 1997 
L 356 1997 
L 356 2522 
L 3381 2522 
L 3381 1997 
z
" transform="scale(0.015625)"/>
      </defs>
      <use xlink:href="#Arial-ItalicMT-3c3" transform="translate(0 0.99375)"/>
      <use xlink:href="#ArialMT-20" transform="translate(60.302734 0.99375)"/>
      <use xlink:href="#ArialMT-28" transform="translate(88.085938 0.99375)"/>
      <use xlink:href="#ArialMT-53" transform="translate(121.386719 0.99375)"/>
      <use xlink:href="#ArialMT-20" transform="translate(188.085938 0.99375)"/>
      <use xlink:href="#ArialMT-63" transform="translate(215.869141 0.99375)"/>
      <use xlink:href="#ArialMT-6d" transform="translate(265.869141 0.99375)"/>
      <use xlink:href="#ArialMT-2212" transform="translate(350.912266 70.6875) scale(0.7)"/>
      <use xlink:href="#ArialMT-31" transform="translate(391.791172 70.6875) scale(0.7)"/>
      <use xlink:href="#ArialMT-29" transform="translate(435.699961 0.99375)"/>
     </g>
    </g>
   </g>
   <g id="line2d_15">
    <path d="M 62.258298 16.731037 
L 73.862206 34.204605 
L 99.175406 70.104844 
L 124.138866 88.213815 
L 148.752586 104.734279 
L 174.0762 113.629914 
L 199.393739 121.572444 
" clip-path="url(#p971ff7835a)" style="fill: none; stroke: #d62728; stroke-width: 1.15; stroke-linecap: square"/>
    <defs>
     <path id="m2d15f68080" d="M 0 2.5 
C 0.663008 2.5 1.29895 2.236584 1.767767 1.767767 
C 2.236584 1.29895 2.5 0.663008 2.5 0 
C 2.5 -0.663008 2.236584 -1.29895 1.767767 -1.767767 
C 1.29895 -2.236584 0.663008 -2.5 0 -2.5 
C -0.663008 -2.5 -1.29895 -2.236584 -1.767767 -1.767767 
C -2.236584 -1.29895 -2.5 -0.663008 -2.5 0 
C -2.5 0.663008 -2.236584 1.29895 -1.767767 1.767767 
C -1.29895 2.236584 -0.663008 2.5 0 2.5 
z
" style="stroke: #d62728"/>
    </defs>
    <g clip-path="url(#p971ff7835a)">
     <use xlink:href="#m2d15f68080" x="62.258298" y="16.731037" style="fill: #d62728; stroke: #d62728"/>
     <use xlink:href="#m2d15f68080" x="73.862206" y="34.204605" style="fill: #d62728; stroke: #d62728"/>
     <use xlink:href="#m2d15f68080" x="99.175406" y="70.104844" style="fill: #d62728; stroke: #d62728"/>
     <use xlink:href="#m2d15f68080" x="124.138866" y="88.213815" style="fill: #d62728; stroke: #d62728"/>
     <use xlink:href="#m2d15f68080" x="148.752586" y="104.734279" style="fill: #d62728; stroke: #d62728"/>
     <use xlink:href="#m2d15f68080" x="174.0762" y="113.629914" style="fill: #d62728; stroke: #d62728"/>
     <use xlink:href="#m2d15f68080" x="199.393739" y="121.572444" style="fill: #d62728; stroke: #d62728"/>
    </g>
   </g>
   <g id="line2d_16">
    <path d="M 62.273919 67.563235 
L 73.877827 78.682778 
L 98.844758 98.380254 
L 124.160562 111.723706 
L 149.829577 119.348536 
L 174.792169 124.749457 
L 200.105369 127.608768 
" clip-path="url(#p971ff7835a)" style="fill: none; stroke: #1f77b4; stroke-width: 1.15; stroke-linecap: square"/>
    <defs>
     <path id="m1561001649" d="M -2.5 2.5 
L 2.5 2.5 
L 2.5 -2.5 
L -2.5 -2.5 
z
" style="stroke: #1f77b4; stroke-linejoin: miter"/>
    </defs>
    <g clip-path="url(#p971ff7835a)">
     <use xlink:href="#m1561001649" x="62.273919" y="67.563235" style="fill: #1f77b4; stroke: #1f77b4; stroke-linejoin: miter"/>
     <use xlink:href="#m1561001649" x="73.877827" y="78.682778" style="fill: #1f77b4; stroke: #1f77b4; stroke-linejoin: miter"/>
     <use xlink:href="#m1561001649" x="98.844758" y="98.380254" style="fill: #1f77b4; stroke: #1f77b4; stroke-linejoin: miter"/>
     <use xlink:href="#m1561001649" x="124.160562" y="111.723706" style="fill: #1f77b4; stroke: #1f77b4; stroke-linejoin: miter"/>
     <use xlink:href="#m1561001649" x="149.829577" y="119.348536" style="fill: #1f77b4; stroke: #1f77b4; stroke-linejoin: miter"/>
     <use xlink:href="#m1561001649" x="174.792169" y="124.749457" style="fill: #1f77b4; stroke: #1f77b4; stroke-linejoin: miter"/>
     <use xlink:href="#m1561001649" x="200.105369" y="127.608768" style="fill: #1f77b4; stroke: #1f77b4; stroke-linejoin: miter"/>
    </g>
   </g>
   <g id="line2d_17">
    <path d="M 62.625395 75.505765 
L 73.527219 85.036802 
L 99.198838 103.781175 
L 124.165769 112.994511 
L 149.1327 121.890146 
L 174.4459 125.70256 
L 199.759968 128.879573 
" clip-path="url(#p971ff7835a)" style="fill: none; stroke: #2ca02c; stroke-width: 1.15; stroke-linecap: square"/>
    <defs>
     <path id="md79a62c539" d="M -0 3.535534 
L 3.535534 0 
L 0 -3.535534 
L -3.535534 -0 
z
" style="stroke: #2ca02c; stroke-linejoin: miter"/>
    </defs>
    <g clip-path="url(#p971ff7835a)">
     <use xlink:href="#md79a62c539" x="62.625395" y="75.505765" style="fill: #2ca02c; stroke: #2ca02c; stroke-linejoin: miter"/>
     <use xlink:href="#md79a62c539" x="73.527219" y="85.036802" style="fill: #2ca02c; stroke: #2ca02c; stroke-linejoin: miter"/>
     <use xlink:href="#md79a62c539" x="99.198838" y="103.781175" style="fill: #2ca02c; stroke: #2ca02c; stroke-linejoin: miter"/>
     <use xlink:href="#md79a62c539" x="124.165769" y="112.994511" style="fill: #2ca02c; stroke: #2ca02c; stroke-linejoin: miter"/>
     <use xlink:href="#md79a62c539" x="149.1327" y="121.890146" style="fill: #2ca02c; stroke: #2ca02c; stroke-linejoin: miter"/>
     <use xlink:href="#md79a62c539" x="174.4459" y="125.70256" style="fill: #2ca02c; stroke: #2ca02c; stroke-linejoin: miter"/>
     <use xlink:href="#md79a62c539" x="199.759968" y="128.879573" style="fill: #2ca02c; stroke: #2ca02c; stroke-linejoin: miter"/>
    </g>
   </g>
   <g id="line2d_18">
    <path d="M 62.10035 56.443691 
L 73.693845 65.657027 
L 98.990556 85.989906 
L 123.937527 97.744852 
L 148.882762 108.864395 
L 174.182944 114.583017 
L 199.129047 119.983938 
" clip-path="url(#p971ff7835a)" style="fill: none; stroke: #9467bd; stroke-width: 1.15; stroke-linecap: square"/>
    <defs>
     <path id="mbfa94bd1f7" d="M 0 -2.5 
L -2.5 2.5 
L 2.5 2.5 
z
" style="stroke: #9467bd; stroke-linejoin: miter"/>
    </defs>
    <g clip-path="url(#p971ff7835a)">
     <use xlink:href="#mbfa94bd1f7" x="62.10035" y="56.443691" style="fill: #9467bd; stroke: #9467bd; stroke-linejoin: miter"/>
     <use xlink:href="#mbfa94bd1f7" x="73.693845" y="65.657027" style="fill: #9467bd; stroke: #9467bd; stroke-linejoin: miter"/>
     <use xlink:href="#mbfa94bd1f7" x="98.990556" y="85.989906" style="fill: #9467bd; stroke: #9467bd; stroke-linejoin: miter"/>
     <use xlink:href="#mbfa94bd1f7" x="123.937527" y="97.744852" style="fill: #9467bd; stroke: #9467bd; stroke-linejoin: miter"/>
     <use xlink:href="#mbfa94bd1f7" x="148.882762" y="108.864395" style="fill: #9467bd; stroke: #9467bd; stroke-linejoin: miter"/>
     <use xlink:href="#mbfa94bd1f7" x="174.182944" y="114.583017" style="fill: #9467bd; stroke: #9467bd; stroke-linejoin: miter"/>
     <use xlink:href="#mbfa94bd1f7" x="199.129047" y="119.983938" style="fill: #9467bd; stroke: #9467bd; stroke-linejoin: miter"/>
    </g>
   </g>
   <g id="line2d_19">
    <path d="M 61.746271 71.375649 
L 72.987422 80.588985 
L 98.635609 98.380254 
L 123.93232 107.911291 
L 148.875819 115.536121 
L 173.821922 119.666237 
L 199.122105 123.796353 
" clip-path="url(#p971ff7835a)" style="fill: none; stroke: #ff7f0e; stroke-width: 1.15; stroke-linecap: square"/>
    <defs>
     <path id="m780066a70c" d="M -0 2.5 
L 2.5 -2.5 
L -2.5 -2.5 
z
" style="stroke: #ff7f0e; stroke-linejoin: miter"/>
    </defs>
    <g clip-path="url(#p971ff7835a)">
     <use xlink:href="#m780066a70c" x="61.746271" y="71.375649" style="fill: #ff7f0e; stroke: #ff7f0e; stroke-linejoin: miter"/>
     <use xlink:href="#m780066a70c" x="72.987422" y="80.588985" style="fill: #ff7f0e; stroke: #ff7f0e; stroke-linejoin: miter"/>
     <use xlink:href="#m780066a70c" x="98.635609" y="98.380254" style="fill: #ff7f0e; stroke: #ff7f0e; stroke-linejoin: miter"/>
     <use xlink:href="#m780066a70c" x="123.93232" y="107.911291" style="fill: #ff7f0e; stroke: #ff7f0e; stroke-linejoin: miter"/>
     <use xlink:href="#m780066a70c" x="148.875819" y="115.536121" style="fill: #ff7f0e; stroke: #ff7f0e; stroke-linejoin: miter"/>
     <use xlink:href="#m780066a70c" x="173.821922" y="119.666237" style="fill: #ff7f0e; stroke: #ff7f0e; stroke-linejoin: miter"/>
     <use xlink:href="#m780066a70c" x="199.122105" y="123.796353" style="fill: #ff7f0e; stroke: #ff7f0e; stroke-linejoin: miter"/>
    </g>
   </g>
   <g id="patch_3">
    <path d="M 51.60375 135.869 
L 51.60375 7.2 
" style="fill: none; stroke: #000000; stroke-width: 0.9; stroke-linejoin: miter; stroke-linecap: square"/>
   </g>
   <g id="patch_4">
    <path d="M 212.44 135.869 
L 212.44 7.2 
" style="fill: none; stroke: #000000; stroke-width: 0.9; stroke-linejoin: miter; stroke-linecap: square"/>
   </g>
   <g id="patch_5">
    <path d="M 51.60375 135.869 
L 212.44 135.869 
" style="fill: none; stroke: #000000; stroke-width: 0.9; stroke-linejoin: miter; stroke-linecap: square"/>
   </g>
   <g id="patch_6">
    <path d="M 51.60375 7.2 
L 212.44 7.2 
" style="fill: none; stroke: #000000; stroke-width: 0.9; stroke-linejoin: miter; stroke-linecap: square"/>
   </g>
  </g>
 </g>
 <defs>
  <clipPath id="p971ff7835a">
   <rect x="51.60375" y="7.2" width="160.83625" height="128.669"/>
  </clipPath>
 </defs>
</svg>
