<?xml version="1.0" encoding="utf-8" standalone="no"?>
<!DOCTYPE svg PUBLIC "-//W3C//DTD SVG 1.1//EN"
  "http://www.w3.org/Graphics/SVG/1.1/DTD/svg11.dtd">
<svg xmlns:xlink="http://www.w3.org/1999/xlink" width="227.991094pt" height="171.977219pt" viewBox="0 0 227.991094 171.977219" xmlns="http://www.w3.org/2000/svg" version="1.1">
 <metadata>
  <rdf:RDF xmlns:dc="http://purl.org/dc/elements/1.1/" xmlns:cc="http://creativecommons.org/ns#" xmlns:rdf="http://www.w3.org/1999/02/22-rdf-syntax-ns#">
   <cc:Work>
    <dc:type rdf:resource="http://purl.org/dc/dcmitype/StillImage"/>
    <dc:date>2026-06-26T16:51:34.786581</dc:date>
    <dc:format>image/svg+xml</dc:format>
    <dc:creator>
     <cc:Agent>
      <dc:title>Matplotlib v3.10.9, https://matplotlib.org/</dc:title>
     </cc:Agent>
    </dc:creator>
   </cc:Work>
  </rdf:RDF>
 </metadata>
 <defs>
  <style type="text/css">*{stroke-linejoin: round; stroke-linecap: butt}</style>
 </defs>
 <g id="figure_1">
  <g id="patch_1">
   <path d="M 0 171.977219 
L 227.991094 171.977219 
L 227.991094 0 
L 0 0 
L 0 171.977219 
z
" style="fill: none"/>
  </g>
  <g id="axes_1">
   <g id="patch_2">
    <path d="M 51.883437 139.231906 
L 212.449688 139.231906 
L 212.449688 10.778906 
L 51.883437 10.778906 
L 51.883437 139.231906 
z
" style="fill: none"/>
   </g>
   <g id="matplotlib.axis_1">
    <g id="xtick_1">
     <g id="line2d_1">
      <defs>
       <path id="m44b8abcb93" d="M 0 0 
L 0 -4 
" style="stroke: #000000"/>
      </defs>
      <g>
       <use xlink:href="#m44b8abcb93" x="61.918828" y="139.231906" style="stroke: #000000"/>
      </g>
     </g>
     <g id="text_1">
      <!-- 300 -->
      <g transform="translate(53.577422 149.389719) scale(0.1 -0.1)">
       <defs>
        <path id="ArialMT-33" d="M 269 1209 
L 831 1284 
Q 928 806 1161 595 
Q 1394 384 1728 384 
Q 2125 384 2398 659 
Q 2672 934 2672 1341 
Q 2672 1728 2419 1979 
Q 2166 2231 1775 2231 
Q 1616 2231 1378 2169 
L 1441 2663 
Q 1497 2656 1531 2656 
Q 1891 2656 2178 2843 
Q 2466 3031 2466 3422 
Q 2466 3731 2256 3934 
Q 2047 4138 1716 4138 
Q 1388 4138 1169 3931 
Q 950 3725 888 3313 
L 325 3413 
Q 428 3978 793 4289 
Q 1159 4600 1703 4600 
Q 2078 4600 2393 4439 
Q 2709 4278 2876 4000 
Q 3044 3722 3044 3409 
Q 3044 3113 2884 2869 
Q 2725 2625 2413 2481 
Q 2819 2388 3044 2092 
Q 3269 1797 3269 1353 
Q 3269 753 2831 336 
Q 2394 -81 1725 -81 
Q 1122 -81 723 278 
Q 325 638 269 1209 
z
" transform="scale(0.015625)"/>
        <path id="ArialMT-30" d="M 266 2259 
Q 266 3072 433 3567 
Q 600 4063 929 4331 
Q 1259 4600 1759 4600 
Q 2128 4600 2406 4451 
Q 2684 4303 2865 4023 
Q 3047 3744 3150 3342 
Q 3253 2941 3253 2259 
Q 3253 1453 3087 958 
Q 2922 463 2592 192 
Q 2263 -78 1759 -78 
Q 1097 -78 719 397 
Q 266 969 266 2259 
z
M 844 2259 
Q 844 1131 1108 757 
Q 1372 384 1759 384 
Q 2147 384 2411 759 
Q 2675 1134 2675 2259 
Q 2675 3391 2411 3762 
Q 2147 4134 1753 4134 
Q 1366 4134 1134 3806 
Q 844 3388 844 2259 
z
" transform="scale(0.015625)"/>
       </defs>
       <use xlink:href="#ArialMT-33"/>
       <use xlink:href="#ArialMT-30" transform="translate(55.615234 0)"/>
       <use xlink:href="#ArialMT-30" transform="translate(111.230469 0)"/>
      </g>
     </g>
    </g>
    <g id="xtick_2">
     <g id="line2d_2">
      <g>
       <use xlink:href="#m44b8abcb93" x="112.095781" y="139.231906" style="stroke: #000000"/>
      </g>
     </g>
     <g id="text_2">
      <!-- 400 -->
      <g transform="translate(103.754375 149.389719) scale(0.1 -0.1)">
       <defs>
        <path id="ArialMT-34" d="M 2069 0 
L 2069 1097 
L 81 1097 
L 81 1613 
L 2172 4581 
L 2631 4581 
L 2631 1613 
L 3250 1613 
L 3250 1097 
L 2631 1097 
L 2631 0 
L 2069 0 
z
M 2069 1613 
L 2069 3678 
L 634 1613 
L 2069 1613 
z
" transform="scale(0.015625)"/>
       </defs>
       <use xlink:href="#ArialMT-34"/>
       <use xlink:href="#ArialMT-30" transform="translate(55.615234 0)"/>
       <use xlink:href="#ArialMT-30" transform="translate(111.230469 0)"/>
      </g>
     </g>
    </g>
    <g id="xtick_3">
     <g id="line2d_3">
      <g>
       <use xlink:href="#m44b8abcb93" x="162.272734" y="139.231906" style="stroke: #000000"/>
      </g>
     </g>
     <g id="text_3">
      <!-- 500 -->
      <g transform="translate(153.931328 149.389719) scale(0.1 -0.1)">
       <defs>
        <path id="ArialMT-35" d="M 266 1200 
L 856 1250 
Q 922 819 1161 601 
Q 1400 384 1738 384 
Q 2144 384 2425 690 
Q 2706 997 2706 1503 
Q 2706 1984 2436 2262 
Q 2166 2541 1728 2541 
Q 1456 2541 1237 2417 
Q 1019 2294 894 2097 
L 366 2166 
L 809 4519 
L 3088 4519 
L 3088 3981 
L 1259 3981 
L 1013 2750 
Q 1425 3038 1878 3038 
Q 2478 3038 2890 2622 
Q 3303 2206 3303 1553 
Q 3303 931 2941 478 
Q 2500 -78 1738 -78 
Q 1113 -78 717 272 
Q 322 622 266 1200 
z
" transform="scale(0.015625)"/>
       </defs>
       <use xlink:href="#ArialMT-35"/>
       <use xlink:href="#ArialMT-30" transform="translate(55.615234 0)"/>
       <use xlink:href="#ArialMT-30" transform="translate(111.230469 0)"/>
      </g>
     </g>
    </g>
    <g id="xtick_4">
     <g id="line2d_4">
      <g>
       <use xlink:href="#m44b8abcb93" x="212.449688" y="139.231906" style="stroke: #000000"/>
      </g>
     </g>
     <g id="text_4">
      <!-- 600 -->
      <g transform="translate(204.108281 149.389719) scale(0.1 -0.1)">
       <defs>
        <path id="ArialMT-36" d="M 3184 3459 
L 2625 3416 
Q 2550 3747 2413 3897 
Q 2184 4138 1850 4138 
Q 1581 4138 1378 3988 
Q 1113 3794 959 3422 
Q 806 3050 800 2363 
Q 1003 2672 1297 2822 
Q 1591 2972 1913 2972 
Q 2475 2972 2870 2558 
Q 3266 2144 3266 1488 
Q 3266 1056 3080 686 
Q 2894 316 2569 119 
Q 2244 -78 1831 -78 
Q 1128 -78 684 439 
Q 241 956 241 2144 
Q 241 3472 731 4075 
Q 1159 4600 1884 4600 
Q 2425 4600 2770 4297 
Q 3116 3994 3184 3459 
z
M 888 1484 
Q 888 1194 1011 928 
Q 1134 663 1356 523 
Q 1578 384 1822 384 
Q 2178 384 2434 671 
Q 2691 959 2691 1453 
Q 2691 1928 2437 2201 
Q 2184 2475 1800 2475 
Q 1419 2475 1153 2201 
Q 888 1928 888 1484 
z
" transform="scale(0.015625)"/>
       </defs>
       <use xlink:href="#ArialMT-36"/>
       <use xlink:href="#ArialMT-30" transform="translate(55.615234 0)"/>
       <use xlink:href="#ArialMT-30" transform="translate(111.230469 0)"/>
      </g>
     </g>
    </g>
    <g id="xtick_5">
     <g id="line2d_5">
      <defs>
       <path id="m8ce38feef4" d="M 0 0 
L 0 -2.2 
" style="stroke: #000000"/>
      </defs>
      <g>
       <use xlink:href="#m8ce38feef4" x="87.007305" y="139.231906" style="stroke: #000000"/>
      </g>
     </g>
    </g>
    <g id="xtick_6">
     <g id="line2d_6">
      <g>
       <use xlink:href="#m8ce38feef4" x="137.184258" y="139.231906" style="stroke: #000000"/>
      </g>
     </g>
    </g>
    <g id="xtick_7">
     <g id="line2d_7">
      <g>
       <use xlink:href="#m8ce38feef4" x="187.361211" y="139.231906" style="stroke: #000000"/>
      </g>
     </g>
    </g>
    <g id="text_5">
     <!-- $T$ (K) -->
     <g transform="translate(118.786563 162.137219) scale(0.12 -0.12)">
      <defs>
       <path id="Arial-ItalicMT-54" d="M 1453 0 
L 2300 4059 
L 797 4059 
L 906 4581 
L 4513 4581 
L 4403 4059 
L 2913 4059 
L 2066 0 
L 1453 0 
z
" transform="scale(0.015625)"/>
       <path id="ArialMT-20" transform="scale(0.015625)"/>
       <path id="ArialMT-28" d="M 1497 -1347 
Q 1031 -759 709 28 
Q 388 816 388 1659 
Q 388 2403 628 3084 
Q 909 3875 1497 4659 
L 1900 4659 
Q 1522 4009 1400 3731 
Q 1209 3300 1100 2831 
Q 966 2247 966 1656 
Q 966 153 1900 -1347 
L 1497 -1347 
z
" transform="scale(0.015625)"/>
       <path id="ArialMT-4b" d="M 469 0 
L 469 4581 
L 1075 4581 
L 1075 2309 
L 3350 4581 
L 4172 4581 
L 2250 2725 
L 4256 0 
L 3456 0 
L 1825 2319 
L 1075 1588 
L 1075 0 
L 469 0 
z
" transform="scale(0.015625)"/>
       <path id="ArialMT-29" d="M 791 -1347 
L 388 -1347 
Q 1322 153 1322 1656 
Q 1322 2244 1188 2822 
Q 1081 3291 891 3722 
Q 769 4003 388 4659 
L 791 4659 
Q 1378 3875 1659 3084 
Q 1900 2403 1900 1659 
Q 1900 816 1576 28 
Q 1253 -759 791 -1347 
z
" transform="scale(0.015625)"/>
      </defs>
      <use xlink:href="#Arial-ItalicMT-54" transform="translate(0 0.203125)"/>
      <use xlink:href="#ArialMT-20" transform="translate(61.083984 0.203125)"/>
      <use xlink:href="#ArialMT-28" transform="translate(88.867188 0.203125)"/>
      <use xlink:href="#ArialMT-4b" transform="translate(122.167969 0.203125)"/>
      <use xlink:href="#ArialMT-29" transform="translate(188.867188 0.203125)"/>
     </g>
    </g>
   </g>
   <g id="matplotlib.axis_2">
    <g id="ytick_1">
     <g id="line2d_8">
      <defs>
       <path id="me61f32d667" d="M 0 0 
L 4 0 
" style="stroke: #000000"/>
      </defs>
      <g>
       <use xlink:href="#me61f32d667" x="51.883437" y="139.231906" style="stroke: #000000"/>
      </g>
     </g>
     <g id="text_6">
      <!-- −400 -->
      <g transform="translate(26.36 142.810812) scale(0.1 -0.1)">
       <defs>
        <path id="ArialMT-2212" d="M 3381 1997 
L 356 1997 
L 356 2522 
L 3381 2522 
L 3381 1997 
z
" transform="scale(0.015625)"/>
       </defs>
       <use xlink:href="#ArialMT-2212"/>
       <use xlink:href="#ArialMT-34" transform="translate(58.398438 0)"/>
       <use xlink:href="#ArialMT-30" transform="translate(114.013672 0)"/>
       <use xlink:href="#ArialMT-30" transform="translate(169.628906 0)"/>
      </g>
     </g>
    </g>
    <g id="ytick_2">
     <g id="line2d_9">
      <g>
       <use xlink:href="#me61f32d667" x="51.883437" y="107.118656" style="stroke: #000000"/>
      </g>
     </g>
     <g id="text_7">
      <!-- −200 -->
      <g transform="translate(26.36 110.697563) scale(0.1 -0.1)">
       <defs>
        <path id="ArialMT-32" d="M 3222 541 
L 3222 0 
L 194 0 
Q 188 203 259 391 
Q 375 700 629 1000 
Q 884 1300 1366 1694 
Q 2113 2306 2375 2664 
Q 2638 3022 2638 3341 
Q 2638 3675 2398 3904 
Q 2159 4134 1775 4134 
Q 1369 4134 1125 3890 
Q 881 3647 878 3216 
L 300 3275 
Q 359 3922 746 4261 
Q 1134 4600 1788 4600 
Q 2447 4600 2831 4234 
Q 3216 3869 3216 3328 
Q 3216 3053 3103 2787 
Q 2991 2522 2730 2228 
Q 2469 1934 1863 1422 
Q 1356 997 1212 845 
Q 1069 694 975 541 
L 3222 541 
z
" transform="scale(0.015625)"/>
       </defs>
       <use xlink:href="#ArialMT-2212"/>
       <use xlink:href="#ArialMT-32" transform="translate(58.398438 0)"/>
       <use xlink:href="#ArialMT-30" transform="translate(114.013672 0)"/>
       <use xlink:href="#ArialMT-30" transform="translate(169.628906 0)"/>
      </g>
     </g>
    </g>
    <g id="ytick_3">
     <g id="line2d_10">
      <g>
       <use xlink:href="#me61f32d667" x="51.883437" y="75.005406" style="stroke: #000000"/>
      </g>
     </g>
     <g id="text_8">
      <!-- 0 -->
      <g transform="translate(43.3225 78.584312) scale(0.1 -0.1)">
       <use xlink:href="#ArialMT-30"/>
      </g>
     </g>
    </g>
    <g id="ytick_4">
     <g id="line2d_11">
      <g>
       <use xlink:href="#me61f32d667" x="51.883437" y="42.892156" style="stroke: #000000"/>
      </g>
     </g>
     <g id="text_9">
      <!-- 200 -->
      <g transform="translate(32.200625 46.471062) scale(0.1 -0.1)">
       <use xlink:href="#ArialMT-32"/>
       <use xlink:href="#ArialMT-30" transform="translate(55.615234 0)"/>
       <use xlink:href="#ArialMT-30" transform="translate(111.230469 0)"/>
      </g>
     </g>
    </g>
    <g id="ytick_5">
     <g id="line2d_12">
      <g>
       <use xlink:href="#me61f32d667" x="51.883437" y="10.778906" style="stroke: #000000"/>
      </g>
     </g>
     <g id="text_10">
      <!-- 400 -->
      <g transform="translate(32.200625 14.357812) scale(0.1 -0.1)">
       <use xlink:href="#ArialMT-34"/>
       <use xlink:href="#ArialMT-30" transform="translate(55.615234 0)"/>
       <use xlink:href="#ArialMT-30" transform="translate(111.230469 0)"/>
      </g>
     </g>
    </g>
    <g id="ytick_6">
     <g id="line2d_13">
      <defs>
       <path id="m9c22b33650" d="M 0 0 
L 2.2 0 
" style="stroke: #000000"/>
      </defs>
      <g>
       <use xlink:href="#m9c22b33650" x="51.883437" y="123.175281" style="stroke: #000000"/>
      </g>
     </g>
    </g>
    <g id="ytick_7">
     <g id="line2d_14">
      <g>
       <use xlink:href="#m9c22b33650" x="51.883437" y="91.062031" style="stroke: #000000"/>
      </g>
     </g>
    </g>
    <g id="ytick_8">
     <g id="line2d_15">
      <g>
       <use xlink:href="#m9c22b33650" x="51.883437" y="58.948781" style="stroke: #000000"/>
      </g>
     </g>
    </g>
    <g id="ytick_9">
     <g id="line2d_16">
      <g>
       <use xlink:href="#m9c22b33650" x="51.883437" y="26.835531" style="stroke: #000000"/>
      </g>
     </g>
    </g>
    <g id="text_11">
     <!-- $S$ (µV K$^{-1}$) -->
     <g transform="translate(21.72 103.025406) rotate(-90) scale(0.12 -0.12)">
      <defs>
       <path id="Arial-ItalicMT-53" d="M 450 1481 
L 1050 1538 
L 1044 1378 
Q 1044 1113 1166 892 
Q 1288 672 1569 551 
Q 1850 431 2238 431 
Q 2788 431 3077 672 
Q 3366 913 3366 1222 
Q 3366 1438 3213 1616 
Q 3056 1791 2359 2091 
Q 1819 2325 1622 2450 
Q 1313 2653 1166 2892 
Q 1019 3131 1019 3438 
Q 1019 3791 1212 4075 
Q 1406 4359 1779 4509 
Q 2153 4659 2622 4659 
Q 3181 4659 3565 4471 
Q 3950 4284 4123 3971 
Q 4297 3659 4297 3375 
Q 4297 3347 4294 3281 
L 3703 3234 
Q 3703 3428 3669 3538 
Q 3606 3728 3475 3859 
Q 3344 3991 3114 4070 
Q 2884 4150 2600 4150 
Q 2100 4150 1822 3925 
Q 1609 3753 1609 3469 
Q 1609 3300 1696 3167 
Q 1784 3034 2013 2906 
Q 2175 2816 2784 2547 
Q 3278 2328 3466 2203 
Q 3716 2038 3850 1802 
Q 3984 1566 3984 1266 
Q 3984 894 3757 580 
Q 3531 266 3131 94 
Q 2731 -78 2216 -78 
Q 1438 -78 945 261 
Q 453 600 450 1481 
z
" transform="scale(0.015625)"/>
       <path id="ArialMT-b5" d="M 3181 3319 
L 3181 0 
L 2678 0 
L 2678 394 
Q 2516 144 2356 50 
Q 2138 -78 1847 -78 
Q 1588 -78 1388 25 
Q 1238 103 1056 334 
L 1056 -1272 
L 500 -1272 
L 500 3319 
L 1056 3319 
L 1056 1913 
Q 1056 1147 1137 920 
Q 1219 694 1401 562 
Q 1584 431 1822 431 
Q 2072 431 2269 568 
Q 2466 706 2547 923 
Q 2628 1141 2628 1903 
L 2628 3319 
L 3181 3319 
z
" transform="scale(0.015625)"/>
       <path id="ArialMT-56" d="M 1803 0 
L 28 4581 
L 684 4581 
L 1875 1253 
Q 2019 853 2116 503 
Q 2222 878 2363 1253 
L 3600 4581 
L 4219 4581 
L 2425 0 
L 1803 0 
z
" transform="scale(0.015625)"/>
       <path id="ArialMT-31" d="M 2384 0 
L 1822 0 
L 1822 3584 
Q 1619 3391 1289 3197 
Q 959 3003 697 2906 
L 697 3450 
Q 1169 3672 1522 3987 
Q 1875 4303 2022 4600 
L 2384 4600 
L 2384 0 
z
" transform="scale(0.015625)"/>
      </defs>
      <use xlink:href="#Arial-ItalicMT-53" transform="translate(0 0.99375)"/>
      <use xlink:href="#ArialMT-20" transform="translate(66.699219 0.99375)"/>
      <use xlink:href="#ArialMT-28" transform="translate(94.482422 0.99375)"/>
      <use xlink:href="#ArialMT-b5" transform="translate(127.783203 0.99375)"/>
      <use xlink:href="#ArialMT-56" transform="translate(185.400391 0.99375)"/>
      <use xlink:href="#ArialMT-20" transform="translate(252.099609 0.99375)"/>
      <use xlink:href="#ArialMT-4b" transform="translate(279.882812 0.99375)"/>
      <use xlink:href="#ArialMT-2212" transform="translate(348.324375 70.6875) scale(0.7)"/>
      <use xlink:href="#ArialMT-31" transform="translate(389.203281 70.6875) scale(0.7)"/>
      <use xlink:href="#ArialMT-29" transform="translate(433.11207 0.99375)"/>
     </g>
    </g>
   </g>
   <g id="line2d_17">
    <path d="M 62.520099 47.918362 
L 74.104528 46.039736 
L 99.375234 43.555616 
L 124.296787 40.436456 
L 148.869187 36.682257 
L 174.15029 30.392234 
L 199.425328 26.322201 
" clip-path="url(#pd5323425d6)" style="fill: none; stroke: #d62728; stroke-width: 1.15; stroke-linecap: square"/>
    <defs>
     <path id="m839679cae7" d="M 0 2.5 
C 0.663008 2.5 1.29895 2.236584 1.767767 1.767767 
C 2.236584 1.29895 2.5 0.663008 2.5 0 
C 2.5 -0.663008 2.236584 -1.29895 1.767767 -1.767767 
C 1.29895 -2.236584 0.663008 -2.5 0 -2.5 
C -0.663008 -2.5 -1.29895 -2.236584 -1.767767 -1.767767 
C -2.236584 -1.29895 -2.5 -0.663008 -2.5 0 
C -2.5 0.663008 -2.236584 1.29895 -1.767767 1.767767 
C -1.29895 2.236584 -0.663008 2.5 0 2.5 
z
" style="stroke: #d62728"/>
    </defs>
    <g clip-path="url(#pd5323425d6)">
     <use xlink:href="#m839679cae7" x="62.520099" y="47.918362" style="fill: #d62728; stroke: #d62728"/>
     <use xlink:href="#m839679cae7" x="74.104528" y="46.039736" style="fill: #d62728; stroke: #d62728"/>
     <use xlink:href="#m839679cae7" x="99.375234" y="43.555616" style="fill: #d62728; stroke: #d62728"/>
     <use xlink:href="#m839679cae7" x="124.296787" y="40.436456" style="fill: #d62728; stroke: #d62728"/>
     <use xlink:href="#m839679cae7" x="148.869187" y="36.682257" style="fill: #d62728; stroke: #d62728"/>
     <use xlink:href="#m839679cae7" x="174.15029" y="30.392234" style="fill: #d62728; stroke: #d62728"/>
     <use xlink:href="#m839679cae7" x="199.425328" y="26.322201" style="fill: #d62728; stroke: #d62728"/>
    </g>
   </g>
   <g id="line2d_18">
    <path d="M 62.535694 42.209429 
L 74.120122 40.330803 
L 99.045141 35.94301 
L 124.318446 32.507373 
L 149.94437 28.438143 
L 174.865057 25.636101 
L 200.135763 23.152141 
" clip-path="url(#pd5323425d6)" style="fill: none; stroke: #1f77b4; stroke-width: 1.15; stroke-linecap: square"/>
    <defs>
     <path id="m815a063ab8" d="M -2.5 2.5 
L 2.5 2.5 
L 2.5 -2.5 
L -2.5 -2.5 
z
" style="stroke: #1f77b4; stroke-linejoin: miter"/>
    </defs>
    <g clip-path="url(#pd5323425d6)">
     <use xlink:href="#m815a063ab8" x="62.535694" y="42.209429" style="fill: #1f77b4; stroke: #1f77b4; stroke-linejoin: miter"/>
     <use xlink:href="#m815a063ab8" x="74.120122" y="40.330803" style="fill: #1f77b4; stroke: #1f77b4; stroke-linejoin: miter"/>
     <use xlink:href="#m815a063ab8" x="99.045141" y="35.94301" style="fill: #1f77b4; stroke: #1f77b4; stroke-linejoin: miter"/>
     <use xlink:href="#m815a063ab8" x="124.318446" y="32.507373" style="fill: #1f77b4; stroke: #1f77b4; stroke-linejoin: miter"/>
     <use xlink:href="#m815a063ab8" x="149.94437" y="28.438143" style="fill: #1f77b4; stroke: #1f77b4; stroke-linejoin: miter"/>
     <use xlink:href="#m815a063ab8" x="174.865057" y="25.636101" style="fill: #1f77b4; stroke: #1f77b4; stroke-linejoin: miter"/>
     <use xlink:href="#m815a063ab8" x="200.135763" y="23.152141" style="fill: #1f77b4; stroke: #1f77b4; stroke-linejoin: miter"/>
    </g>
   </g>
   <g id="line2d_19">
    <path d="M 62.88658 42.210071 
L 73.770103 40.012882 
L 99.398626 34.992136 
L 124.323645 30.604342 
L 149.248663 26.216548 
L 174.51937 23.732428 
L 199.790942 20.931189 
" clip-path="url(#pd5323425d6)" style="fill: none; stroke: #2ca02c; stroke-width: 1.15; stroke-linecap: square"/>
    <defs>
     <path id="md3b44cbe6c" d="M -0 3.535534 
L 3.535534 0 
L 0 -3.535534 
L -3.535534 -0 
z
" style="stroke: #2ca02c; stroke-linejoin: miter"/>
    </defs>
    <g clip-path="url(#pd5323425d6)">
     <use xlink:href="#md3b44cbe6c" x="62.88658" y="42.210071" style="fill: #2ca02c; stroke: #2ca02c; stroke-linejoin: miter"/>
     <use xlink:href="#md3b44cbe6c" x="73.770103" y="40.012882" style="fill: #2ca02c; stroke: #2ca02c; stroke-linejoin: miter"/>
     <use xlink:href="#md3b44cbe6c" x="99.398626" y="34.992136" style="fill: #2ca02c; stroke: #2ca02c; stroke-linejoin: miter"/>
     <use xlink:href="#md3b44cbe6c" x="124.323645" y="30.604342" style="fill: #2ca02c; stroke: #2ca02c; stroke-linejoin: miter"/>
     <use xlink:href="#md3b44cbe6c" x="149.248663" y="26.216548" style="fill: #2ca02c; stroke: #2ca02c; stroke-linejoin: miter"/>
     <use xlink:href="#md3b44cbe6c" x="174.51937" y="23.732428" style="fill: #2ca02c; stroke: #2ca02c; stroke-linejoin: miter"/>
     <use xlink:href="#md3b44cbe6c" x="199.790942" y="20.931189" style="fill: #2ca02c; stroke: #2ca02c; stroke-linejoin: miter"/>
    </g>
   </g>
   <g id="line2d_20">
    <path d="M 62.362417 105.642571 
L 73.936449 107.570008 
L 99.190694 111.112099 
L 124.095786 114.018991 
L 148.999145 117.56044 
L 174.256855 119.833737 
L 199.16108 123.057907 
" clip-path="url(#pd5323425d6)" style="fill: none; stroke: #9467bd; stroke-width: 1.15; stroke-linecap: square"/>
    <defs>
     <path id="m836760d29e" d="M 0 -2.5 
L -2.5 2.5 
L 2.5 2.5 
z
" style="stroke: #9467bd; stroke-linejoin: miter"/>
    </defs>
    <g clip-path="url(#pd5323425d6)">
     <use xlink:href="#m836760d29e" x="62.362417" y="105.642571" style="fill: #9467bd; stroke: #9467bd; stroke-linejoin: miter"/>
     <use xlink:href="#m836760d29e" x="73.936449" y="107.570008" style="fill: #9467bd; stroke: #9467bd; stroke-linejoin: miter"/>
     <use xlink:href="#m836760d29e" x="99.190694" y="111.112099" style="fill: #9467bd; stroke: #9467bd; stroke-linejoin: miter"/>
     <use xlink:href="#m836760d29e" x="124.095786" y="114.018991" style="fill: #9467bd; stroke: #9467bd; stroke-linejoin: miter"/>
     <use xlink:href="#m836760d29e" x="148.999145" y="117.56044" style="fill: #9467bd; stroke: #9467bd; stroke-linejoin: miter"/>
     <use xlink:href="#m836760d29e" x="174.256855" y="119.833737" style="fill: #9467bd; stroke: #9467bd; stroke-linejoin: miter"/>
     <use xlink:href="#m836760d29e" x="199.16108" y="123.057907" style="fill: #9467bd; stroke: #9467bd; stroke-linejoin: miter"/>
    </g>
   </g>
   <g id="line2d_21">
    <path d="M 62.008932 106.593444 
L 73.231212 108.837197 
L 98.836342 112.379931 
L 124.090587 115.922022 
L 148.992214 120.097708 
L 173.896439 123.321878 
L 199.154149 125.595175 
" clip-path="url(#pd5323425d6)" style="fill: none; stroke: #ff7f0e; stroke-width: 1.15; stroke-linecap: square"/>
    <defs>
     <path id="mb1554f748e" d="M -0 2.5 
L 2.5 -2.5 
L -2.5 -2.5 
z
" style="stroke: #ff7f0e; stroke-linejoin: miter"/>
    </defs>
    <g clip-path="url(#pd5323425d6)">
     <use xlink:href="#mb1554f748e" x="62.008932" y="106.593444" style="fill: #ff7f0e; stroke: #ff7f0e; stroke-linejoin: miter"/>
     <use xlink:href="#mb1554f748e" x="73.231212" y="108.837197" style="fill: #ff7f0e; stroke: #ff7f0e; stroke-linejoin: miter"/>
     <use xlink:href="#mb1554f748e" x="98.836342" y="112.379931" style="fill: #ff7f0e; stroke: #ff7f0e; stroke-linejoin: miter"/>
     <use xlink:href="#mb1554f748e" x="124.090587" y="115.922022" style="fill: #ff7f0e; stroke: #ff7f0e; stroke-linejoin: miter"/>
     <use xlink:href="#mb1554f748e" x="148.992214" y="120.097708" style="fill: #ff7f0e; stroke: #ff7f0e; stroke-linejoin: miter"/>
     <use xlink:href="#mb1554f748e" x="173.896439" y="123.321878" style="fill: #ff7f0e; stroke: #ff7f0e; stroke-linejoin: miter"/>
     <use xlink:href="#mb1554f748e" x="199.154149" y="125.595175" style="fill: #ff7f0e; stroke: #ff7f0e; stroke-linejoin: miter"/>
    </g>
   </g>
   <g id="patch_3">
    <path d="M 51.883437 139.231906 
L 51.883437 10.778906 
" style="fill: none; stroke: #000000; stroke-width: 0.9; stroke-linejoin: miter; stroke-linecap: square"/>
   </g>
   <g id="patch_4">
    <path d="M 212.449688 139.231906 
L 212.449688 10.778906 
" style="fill: none; stroke: #000000; stroke-width: 0.9; stroke-linejoin: miter; stroke-linecap: square"/>
   </g>
   <g id="patch_5">
    <path d="M 51.883438 139.231906 
L 212.449688 139.231906 
" style="fill: none; stroke: #000000; stroke-width: 0.9; stroke-linejoin: miter; stroke-linecap: square"/>
   </g>
   <g id="patch_6">
    <path d="M 51.883438 10.778906 
L 212.449688 10.778906 
" style="fill: none; stroke: #000000; stroke-width: 0.9; stroke-linejoin: miter; stroke-linecap: square"/>
   </g>
   <g id="legend_1">
    <g id="patch_7">
     <path d="M 126.474688 104.942906 
L 210.699688 104.942906 
L 210.699688 49.067906 
L 126.474688 49.067906 
z
" style="fill: #4d4d4d; opacity: 0.5; stroke: #4d4d4d; stroke-linejoin: miter"/>
    </g>
    <g id="patch_8">
     <path d="M 124.474688 102.942906 
L 208.699688 102.942906 
L 208.699688 47.067906 
L 124.474688 47.067906 
z
" style="fill: #ffffff; stroke: #000000; stroke-linejoin: miter"/>
    </g>
    <g id="line2d_22">
     <path d="M 127.099688 52.542906 
L 132.724688 52.542906 
L 138.349688 52.542906 
" style="fill: none; stroke: #d62728; stroke-width: 1.15; stroke-linecap: square"/>
     <g>
      <use xlink:href="#m839679cae7" x="132.724688" y="52.542906" style="fill: #d62728; stroke: #d62728"/>
     </g>
    </g>
    <g id="text_12">
     <!-- $x = 0\ \mathrm{(p-type)}$ -->
     <g transform="translate(144.349688 55.167906) scale(0.075 -0.075)">
      <defs>
       <path id="Arial-ItalicMT-78" d="M -9 0 
L 1434 1684 
L 606 3319 
L 1231 3319 
L 1513 2728 
Q 1669 2397 1794 2094 
L 2750 3319 
L 3441 3319 
L 2047 1641 
L 2884 0 
L 2259 0 
L 1928 675 
Q 1822 891 1688 1209 
L 700 0 
L -9 0 
z
" transform="scale(0.015625)"/>
       <path id="ArialMT-3d" d="M 3381 2694 
L 356 2694 
L 356 3219 
L 3381 3219 
L 3381 2694 
z
M 3381 1303 
L 356 1303 
L 356 1828 
L 3381 1828 
L 3381 1303 
z
" transform="scale(0.015625)"/>
       <path id="ArialMT-70" d="M 422 -1272 
L 422 3319 
L 934 3319 
L 934 2888 
Q 1116 3141 1344 3267 
Q 1572 3394 1897 3394 
Q 2322 3394 2647 3175 
Q 2972 2956 3137 2557 
Q 3303 2159 3303 1684 
Q 3303 1175 3120 767 
Q 2938 359 2589 142 
Q 2241 -75 1856 -75 
Q 1575 -75 1351 44 
Q 1128 163 984 344 
L 984 -1272 
L 422 -1272 
z
M 931 1641 
Q 931 1000 1190 694 
Q 1450 388 1819 388 
Q 2194 388 2461 705 
Q 2728 1022 2728 1688 
Q 2728 2322 2467 2637 
Q 2206 2953 1844 2953 
Q 1484 2953 1207 2617 
Q 931 2281 931 1641 
z
" transform="scale(0.015625)"/>
       <path id="ArialMT-74" d="M 1650 503 
L 1731 6 
Q 1494 -44 1306 -44 
Q 1000 -44 831 53 
Q 663 150 594 308 
Q 525 466 525 972 
L 525 2881 
L 113 2881 
L 113 3319 
L 525 3319 
L 525 4141 
L 1084 4478 
L 1084 3319 
L 1650 3319 
L 1650 2881 
L 1084 2881 
L 1084 941 
Q 1084 700 1114 631 
Q 1144 563 1211 522 
Q 1278 481 1403 481 
Q 1497 481 1650 503 
z
" transform="scale(0.015625)"/>
       <path id="ArialMT-79" d="M 397 -1278 
L 334 -750 
Q 519 -800 656 -800 
Q 844 -800 956 -737 
Q 1069 -675 1141 -563 
Q 1194 -478 1313 -144 
Q 1328 -97 1363 -6 
L 103 3319 
L 709 3319 
L 1400 1397 
Q 1534 1031 1641 628 
Q 1738 1016 1872 1384 
L 2581 3319 
L 3144 3319 
L 1881 -56 
Q 1678 -603 1566 -809 
Q 1416 -1088 1222 -1217 
Q 1028 -1347 759 -1347 
Q 597 -1347 397 -1278 
z
" transform="scale(0.015625)"/>
       <path id="ArialMT-65" d="M 2694 1069 
L 3275 997 
Q 3138 488 2766 206 
Q 2394 -75 1816 -75 
Q 1088 -75 661 373 
Q 234 822 234 1631 
Q 234 2469 665 2931 
Q 1097 3394 1784 3394 
Q 2450 3394 2872 2941 
Q 3294 2488 3294 1666 
Q 3294 1616 3291 1516 
L 816 1516 
Q 847 969 1125 678 
Q 1403 388 1819 388 
Q 2128 388 2347 550 
Q 2566 713 2694 1069 
z
M 847 1978 
L 2700 1978 
Q 2663 2397 2488 2606 
Q 2219 2931 1791 2931 
Q 1403 2931 1139 2672 
Q 875 2413 847 1978 
z
" transform="scale(0.015625)"/>
      </defs>
      <use xlink:href="#Arial-ItalicMT-78" transform="translate(0 0.203125)"/>
      <use xlink:href="#ArialMT-3d" transform="translate(66.660156 0.203125)"/>
      <use xlink:href="#ArialMT-30" transform="translate(141.71875 0.203125)"/>
      <use xlink:href="#ArialMT-28" transform="translate(225.100634 0.203125)"/>
      <use xlink:href="#ArialMT-70" transform="translate(258.401415 0.203125)"/>
      <use xlink:href="#ArialMT-2212" transform="translate(330.676806 0.203125)"/>
      <use xlink:href="#ArialMT-74" transform="translate(405.735399 0.203125)"/>
      <use xlink:href="#ArialMT-79" transform="translate(433.518603 0.203125)"/>
      <use xlink:href="#ArialMT-70" transform="translate(483.518603 0.203125)"/>
      <use xlink:href="#ArialMT-65" transform="translate(539.133837 0.203125)"/>
      <use xlink:href="#ArialMT-29" transform="translate(594.749071 0.203125)"/>
     </g>
    </g>
    <g id="line2d_23">
     <path d="M 127.099688 63.417906 
L 132.724688 63.417906 
L 138.349688 63.417906 
" style="fill: none; stroke: #1f77b4; stroke-width: 1.15; stroke-linecap: square"/>
     <g>
      <use xlink:href="#m815a063ab8" x="132.724688" y="63.417906" style="fill: #1f77b4; stroke: #1f77b4; stroke-linejoin: miter"/>
     </g>
    </g>
    <g id="text_13">
     <!-- $x = 0.001\ \mathrm{(p-type)}$ -->
     <g transform="translate(144.349688 66.042906) scale(0.075 -0.075)">
      <defs>
       <path id="ArialMT-2e" d="M 581 0 
L 581 641 
L 1222 641 
L 1222 0 
L 581 0 
z
" transform="scale(0.015625)"/>
      </defs>
      <use xlink:href="#Arial-ItalicMT-78" transform="translate(0 0.203125)"/>
      <use xlink:href="#ArialMT-3d" transform="translate(66.660156 0.203125)"/>
      <use xlink:href="#ArialMT-30" transform="translate(141.71875 0.203125)"/>
      <use xlink:href="#ArialMT-2e" transform="translate(197.333984 0.203125)"/>
      <use xlink:href="#ArialMT-30" transform="translate(225.117188 0.203125)"/>
      <use xlink:href="#ArialMT-30" transform="translate(280.732422 0.203125)"/>
      <use xlink:href="#ArialMT-31" transform="translate(336.347656 0.203125)"/>
      <use xlink:href="#ArialMT-28" transform="translate(419.72954 0.203125)"/>
      <use xlink:href="#ArialMT-70" transform="translate(453.030321 0.203125)"/>
      <use xlink:href="#ArialMT-2212" transform="translate(525.305712 0.203125)"/>
      <use xlink:href="#ArialMT-74" transform="translate(600.364306 0.203125)"/>
      <use xlink:href="#ArialMT-79" transform="translate(628.147509 0.203125)"/>
      <use xlink:href="#ArialMT-70" transform="translate(678.147509 0.203125)"/>
      <use xlink:href="#ArialMT-65" transform="translate(733.762743 0.203125)"/>
      <use xlink:href="#ArialMT-29" transform="translate(789.377978 0.203125)"/>
     </g>
    </g>
    <g id="line2d_24">
     <path d="M 127.099688 74.292906 
L 132.724688 74.292906 
L 138.349688 74.292906 
" style="fill: none; stroke: #2ca02c; stroke-width: 1.15; stroke-linecap: square"/>
     <g>
      <use xlink:href="#md3b44cbe6c" x="132.724688" y="74.292906" style="fill: #2ca02c; stroke: #2ca02c; stroke-linejoin: miter"/>
     </g>
    </g>
    <g id="text_14">
     <!-- $x = 0.003\ \mathrm{(p-type)}$ -->
     <g transform="translate(144.349688 76.917906) scale(0.075 -0.075)">
      <use xlink:href="#Arial-ItalicMT-78" transform="translate(0 0.203125)"/>
      <use xlink:href="#ArialMT-3d" transform="translate(66.660156 0.203125)"/>
      <use xlink:href="#ArialMT-30" transform="translate(141.71875 0.203125)"/>
      <use xlink:href="#ArialMT-2e" transform="translate(197.333984 0.203125)"/>
      <use xlink:href="#ArialMT-30" transform="translate(225.117188 0.203125)"/>
      <use xlink:href="#ArialMT-30" transform="translate(280.732422 0.203125)"/>
      <use xlink:href="#ArialMT-33" transform="translate(336.347656 0.203125)"/>
      <use xlink:href="#ArialMT-28" transform="translate(419.72954 0.203125)"/>
      <use xlink:href="#ArialMT-70" transform="translate(453.030321 0.203125)"/>
      <use xlink:href="#ArialMT-2212" transform="translate(525.305712 0.203125)"/>
      <use xlink:href="#ArialMT-74" transform="translate(600.364306 0.203125)"/>
      <use xlink:href="#ArialMT-79" transform="translate(628.147509 0.203125)"/>
      <use xlink:href="#ArialMT-70" transform="translate(678.147509 0.203125)"/>
      <use xlink:href="#ArialMT-65" transform="translate(733.762743 0.203125)"/>
      <use xlink:href="#ArialMT-29" transform="translate(789.377978 0.203125)"/>
     </g>
    </g>
    <g id="line2d_25">
     <path d="M 127.099688 85.167906 
L 132.724688 85.167906 
L 138.349688 85.167906 
" style="fill: none; stroke: #9467bd; stroke-width: 1.15; stroke-linecap: square"/>
     <g>
      <use xlink:href="#m836760d29e" x="132.724688" y="85.167906" style="fill: #9467bd; stroke: #9467bd; stroke-linejoin: miter"/>
     </g>
    </g>
    <g id="text_15">
     <!-- $x = 0.005\ \mathrm{(n-type)}$ -->
     <g transform="translate(144.349688 87.792906) scale(0.075 -0.075)">
      <defs>
       <path id="ArialMT-6e" d="M 422 0 
L 422 3319 
L 928 3319 
L 928 2847 
Q 1294 3394 1984 3394 
Q 2284 3394 2536 3286 
Q 2788 3178 2913 3003 
Q 3038 2828 3088 2588 
Q 3119 2431 3119 2041 
L 3119 0 
L 2556 0 
L 2556 2019 
Q 2556 2363 2490 2533 
Q 2425 2703 2258 2804 
Q 2091 2906 1866 2906 
Q 1506 2906 1245 2678 
Q 984 2450 984 1813 
L 984 0 
L 422 0 
z
" transform="scale(0.015625)"/>
      </defs>
      <use xlink:href="#Arial-ItalicMT-78" transform="translate(0 0.203125)"/>
      <use xlink:href="#ArialMT-3d" transform="translate(66.660156 0.203125)"/>
      <use xlink:href="#ArialMT-30" transform="translate(141.71875 0.203125)"/>
      <use xlink:href="#ArialMT-2e" transform="translate(197.333984 0.203125)"/>
      <use xlink:href="#ArialMT-30" transform="translate(225.117188 0.203125)"/>
      <use xlink:href="#ArialMT-30" transform="translate(280.732422 0.203125)"/>
      <use xlink:href="#ArialMT-35" transform="translate(336.347656 0.203125)"/>
      <use xlink:href="#ArialMT-28" transform="translate(419.72954 0.203125)"/>
      <use xlink:href="#ArialMT-6e" transform="translate(453.030321 0.203125)"/>
      <use xlink:href="#ArialMT-2212" transform="translate(525.305712 0.203125)"/>
      <use xlink:href="#ArialMT-74" transform="translate(600.364306 0.203125)"/>
      <use xlink:href="#ArialMT-79" transform="translate(628.147509 0.203125)"/>
      <use xlink:href="#ArialMT-70" transform="translate(678.147509 0.203125)"/>
      <use xlink:href="#ArialMT-65" transform="translate(733.762743 0.203125)"/>
      <use xlink:href="#ArialMT-29" transform="translate(789.377978 0.203125)"/>
     </g>
    </g>
    <g id="line2d_26">
     <path d="M 127.099688 96.042906 
L 132.724688 96.042906 
L 138.349688 96.042906 
" style="fill: none; stroke: #ff7f0e; stroke-width: 1.15; stroke-linecap: square"/>
     <g>
      <use xlink:href="#mb1554f748e" x="132.724688" y="96.042906" style="fill: #ff7f0e; stroke: #ff7f0e; stroke-linejoin: miter"/>
     </g>
    </g>
    <g id="text_16">
     <!-- $x = 0.007\ \mathrm{(n-type)}$ -->
     <g transform="translate(144.349688 98.667906) scale(0.075 -0.075)">
      <defs>
       <path id="ArialMT-37" d="M 303 3981 
L 303 4522 
L 3269 4522 
L 3269 4084 
Q 2831 3619 2401 2847 
Q 1972 2075 1738 1259 
Q 1569 684 1522 0 
L 944 0 
Q 953 541 1156 1306 
Q 1359 2072 1739 2783 
Q 2119 3494 2547 3981 
L 303 3981 
z
" transform="scale(0.015625)"/>
      </defs>
      <use xlink:href="#Arial-ItalicMT-78" transform="translate(0 0.203125)"/>
      <use xlink:href="#ArialMT-3d" transform="translate(66.660156 0.203125)"/>
      <use xlink:href="#ArialMT-30" transform="translate(141.71875 0.203125)"/>
      <use xlink:href="#ArialMT-2e" transform="translate(197.333984 0.203125)"/>
      <use xlink:href="#ArialMT-30" transform="translate(225.117188 0.203125)"/>
      <use xlink:href="#ArialMT-30" transform="translate(280.732422 0.203125)"/>
      <use xlink:href="#ArialMT-37" transform="translate(336.347656 0.203125)"/>
      <use xlink:href="#ArialMT-28" transform="translate(419.72954 0.203125)"/>
      <use xlink:href="#ArialMT-6e" transform="translate(453.030321 0.203125)"/>
      <use xlink:href="#ArialMT-2212" transform="translate(525.305712 0.203125)"/>
      <use xlink:href="#ArialMT-74" transform="translate(600.364306 0.203125)"/>
      <use xlink:href="#ArialMT-79" transform="translate(628.147509 0.203125)"/>
      <use xlink:href="#ArialMT-70" transform="translate(678.147509 0.203125)"/>
      <use xlink:href="#ArialMT-65" transform="translate(733.762743 0.203125)"/>
      <use xlink:href="#ArialMT-29" transform="translate(789.377978 0.203125)"/>
     </g>
    </g>
   </g>
  </g>
 </g>
 <defs>
  <clipPath id="pd5323425d6">
   <rect x="51.883437" y="10.778906" width="160.56625" height="128.453"/>
  </clipPath>
 </defs>
</svg>
